<svg xmlns="http://www.w3.org/2000/svg" viewBox="0 0 246.61 141.73"><defs><style>.cls-1{fill:#b42025;}.cls-2{fill:#fff;}</style></defs><title>sie_cor</title><g id="Layer_2" data-name="Layer 2"><g id="Layer_1-2" data-name="Layer 1"><path class="cls-1" d="M225.44,7.17H143a21.07,21.07,0,0,0-15.13,6.39H117.51A20.22,20.22,0,0,0,98.71,0H20.18C9,0,0,9.5,0,21.22v82.57C0,115.51,9,125,20.18,125H42.26a21.3,21.3,0,0,0,20.58,16.72h82.39a21,21,0,0,0,17.53-9.55h62.68A21.19,21.19,0,0,0,246.61,111V28.39A21.19,21.19,0,0,0,225.44,7.17Z"/><path class="cls-2" d="M112.48,47.31v-.62c0-5.06-1.19-9.1-3.55-12a19.18,19.18,0,0,0-9.2-6.17,48.66,48.66,0,0,0-13.06-2.27c-4.86-.24-10.12-.37-15.62-.37-6.74,0-13.19.16-19.17.49A48.73,48.73,0,0,0,35.7,29.76a24.26,24.26,0,0,0-11.21,9.31c-2.7,4.18-4.07,10.15-4.07,17.73,0,11.07,4.62,17.48,13.72,19a143.36,143.36,0,0,0,27.64,1.8,140.44,140.44,0,0,1,27,1.74C96.32,80.66,100,85.82,100,95.16c0,3.49-.68,4.89-1.26,5l-.14,0a42.73,42.73,0,0,1-12.05,2c-4.81.2-10,.3-15.48.3a141.66,141.66,0,0,1-27.74-2.34c-7-1.42-10.4-6.39-10.4-15.18V81L20.42,94.54v.62c0,10.32,4.35,16.45,12.94,18.24a141.8,141.8,0,0,0,28.38,2.47c5.51,0,10.77-.12,15.62-.37a52.36,52.36,0,0,0,13-2.15,36.74,36.74,0,0,0,16-9.82c4-4.43,6.08-10.65,6.08-18.49,0-11-4.65-17.36-13.84-18.92A144.53,144.53,0,0,0,71,64.34,140.36,140.36,0,0,1,44,62.6c-7.49-1.28-11.13-6.48-11.13-15.91,0-2.28.78-5.4,7.54-6.28a170.12,170.12,0,0,1,21.29-1.14c5.52,0,10.73.1,15.48.3a42.78,42.78,0,0,1,12.1,2.06,16.05,16.05,0,0,1,7.83,5.14C99,49.11,100,52.49,100,56.8v4.08Z"/><polygon class="cls-2" points="125.32 37.02 125.32 117.94 138.62 104.97 138.62 23.73 125.32 37.02"/><polygon class="cls-2" points="166.5 77.65 199.79 77.97 212.81 64.78 166.5 64.36 166.5 39.29 214.32 39.77 236.51 25.86 164.25 25.86 153.21 37.03 153.21 115.88 207.18 115.88 220.47 102.58 166.5 102.58 166.5 77.65"/></g></g></svg>